<svg id="Ebene_1" data-name="Ebene 1" xmlns="http://www.w3.org/2000/svg" viewBox="0 0 100 100"><defs><style>.cls-1{fill:#73adbf;}</style></defs><title>chat-1</title><path class="cls-1" d="M95.14,98.19h-93v-93h-2l3-5,3,5h-2v91h91v-2l5,3-5,3v-2h0Zm-68-58a1,1,0,0,0-1,1v52a1,1,0,0,0,1,1h15a1,1,0,0,0,1-1v-52a1,1,0,0,0-1-1h-15Zm20-20a1,1,0,0,0-1,1v72a1.08,1.08,0,0,0,1,1h15a1,1,0,0,0,1-1v-72a1.08,1.08,0,0,0-1-1h-15Zm20,10a0.94,0.94,0,0,0-1,1v62a1,1,0,0,0,1,1h15a0.94,0.94,0,0,0,1-1v-62a1,1,0,0,0-1-1h-15Zm-60,27a0.94,0.94,0,0,0-1,1v35a1,1,0,0,0,1,1h15a0.94,0.94,0,0,0,1-1v-35a1,1,0,0,0-1-1h-15Zm1,2v15h13v-15h-13Zm20-17v18h13v-18h-13Zm20-20v23h13v-23h-13Zm20,10v6h13v-6h-13Z" transform="translate(-0.14 -0.19)"/></svg>