<svg id="Ebene_1" data-name="Ebene 1" xmlns="http://www.w3.org/2000/svg" viewBox="0 0 86 94"><defs><style>.cls-1{fill:#cf6363;}</style></defs><title>chat-3</title><path class="cls-1" d="M50.47,98.43v-94h2v94h-2Zm5-71a1.08,1.08,0,0,1-1-1v-8a1.08,1.08,0,0,1,1-1h18a1.08,1.08,0,0,1,1,1v8a1.08,1.08,0,0,1-1,1h-18Zm0,14a1,1,0,0,1-1-1v-8a1,1,0,0,1,1-1h28a1,1,0,0,1,1,1v8a1,1,0,0,1-1,1h-28Zm0,14a1,1,0,0,1-1-1v-8a1,1,0,0,1,1-1h38a1,1,0,0,1,1,1v8a1,1,0,0,1-1,1h-38Zm0,14a1,1,0,0,1-1-1v-8a1,1,0,0,1,1-1h28a1,1,0,0,1,1,1v8a1,1,0,0,1-1,1h-28Zm0,14a1.08,1.08,0,0,1-1-1v-8a1.08,1.08,0,0,1,1-1h18a1.08,1.08,0,0,1,1,1v8a1.08,1.08,0,0,1-1,1h-18Zm-8-56a1.08,1.08,0,0,0,1-1v-8a1.08,1.08,0,0,0-1-1h-18a1.08,1.08,0,0,0-1,1v8a1.08,1.08,0,0,0,1,1h18Zm0,14a1,1,0,0,0,1-1v-8a1,1,0,0,0-1-1h-28a1,1,0,0,0-1,1v8a1,1,0,0,0,1,1h28Zm0,14a1,1,0,0,0,1-1v-8a1,1,0,0,0-1-1h-38a1,1,0,0,0-1,1v8a1,1,0,0,0,1,1h38Zm0,14a1,1,0,0,0,1-1v-8a1,1,0,0,0-1-1h-28a1,1,0,0,0-1,1v8a1,1,0,0,0,1,1h28Zm0,14a1.08,1.08,0,0,0,1-1v-8a1.08,1.08,0,0,0-1-1h-18a1.08,1.08,0,0,0-1,1v8a1.08,1.08,0,0,0,1,1h18Z" transform="translate(-8.47 -4.43)"/></svg>