<svg id="Ebene_1" data-name="Ebene 1" xmlns="http://www.w3.org/2000/svg" viewBox="0 0 377.76 364.05"><defs><style>.cls-1{fill:#212121;}.cls-2{fill:#73adbf;}.cls-3{fill:#d42919;}.cls-4{fill:#0b0d10;}.cls-11,.cls-5{fill:#fff;}.cls-5{isolation:isolate;}.cls-6{fill:#d99157;}.cls-7{fill:#9abf97;}.cls-8{fill:#cf6363;}.cls-9{fill:#dbbe56;}.cls-10{fill:#502d16;}</style></defs><title>img-2</title><path class="cls-1" d="M279.75,334.81a2.5,2.5,0,0,1-2.17,0h0l-67.67-35.18a1.24,1.24,0,0,1-.56-0.77,1.26,1.26,0,0,1,0-.53l0.05-.18a1.11,1.11,0,0,1,.2-0.37l0-.19a25,25,0,0,1,6.83-11.05h0.12a1,1,0,0,1,.21-0.29l0.09-.08a1.25,1.25,0,0,1,1.47-.08l0.11,0.08,0.15,0.14h0L280,330.38h0a2.5,2.5,0,0,1-.2,4.43h0Z" transform="translate(-61.82 -65.18)"/><path class="cls-1" d="M204.66,296.49a30.06,30.06,0,0,1-19.36-21.39,30,30,0,0,1,27.82,7.63A30.05,30.05,0,0,0,204.66,296.49Z" transform="translate(-61.82 -65.18)"/><path class="cls-2" d="M67.6,302.16v2.31L61.82,301l5.78-3.47v2.31H172.83V194.62h-2.31l3.47-5.78,3.47,5.78h-2.31V302.16H67.6Zm61.29-67.07a1.16,1.16,0,0,0-1.16,1.16v60.13a1.16,1.16,0,0,0,1.16,1.16h17.35a1.16,1.16,0,0,0,1.16-1.16V236.25a1.16,1.16,0,0,0-1.16-1.16H128.89ZM105.76,212a1.24,1.24,0,0,0-1.16,1.16v83.26a1.16,1.16,0,0,0,1.16,1.16h17.35a1.24,1.24,0,0,0,1.16-1.16V213.12a1.16,1.16,0,0,0-1.16-1.16H105.76ZM82.64,223.53a1.16,1.16,0,0,0-1.16,1.16v71.69a1.09,1.09,0,0,0,1.16,1.16H100a1.16,1.16,0,0,0,1.16-1.16V224.68a1.09,1.09,0,0,0-1.16-1.16H82.64ZM152,254.75a1.16,1.16,0,0,0-1.16,1.16v40.47a1.09,1.09,0,0,0,1.16,1.16h17.35a1.16,1.16,0,0,0,1.16-1.16V255.91a1.09,1.09,0,0,0-1.16-1.16H152Zm1.16,2.31v17.35h15V257.06h-15ZM130,237.4v20.81h15V237.4H130Zm-23.13-23.13v26.6h15v-26.6h-15ZM83.79,225.84v6.94h15v-6.94h-15Z" transform="translate(-61.82 -65.18)"/><path class="cls-3" d="M256.47,126.64l113.29,13.78c20.58,98.47,63.32,189.79,69.82,212.1,0,0-29.55,3.2-69.43,3.2-92.95,0-99.69-20.52-114.7-38.92,102.84,47.41,78-116.61,58.69-160.65-13.2-31-71.36-19.2-60.09,16.75,3.95,11.11,6.69,23.86,2.81,27.94-4.53,3.75-26.59,0-26.59,0-16.15-3.63-21-5.43-29.34-8.38C214.07,164.93,234.31,144.12,256.47,126.64Z" transform="translate(-61.82 -65.18)"/><path class="cls-4" d="M283.72,157.81a19.56,19.56,0,1,0,19.56,19.56A19.56,19.56,0,0,0,283.72,157.81Zm7.25,8.6c3,0.15,12.46,12.15-.25,8.65C288.64,174.5,283,165.72,291,166.42Z" transform="translate(-61.82 -65.18)"/><path class="cls-5" d="M291,166.42c3,0.15,12.46,12.15-.25,8.65C288.64,174.5,283,165.72,291,166.42Z" transform="translate(-61.82 -65.18)"/><path d="M198.17,208.83c5.57,7.43,8.75,8.41,18.62,7l0.82,22.87C207.6,231.3,195.65,222.71,198.17,208.83Z" transform="translate(-61.82 -65.18)"/><path class="cls-3" d="M289.43,103.21l75.14,9.14q2.25,14.08,5.19,28.08L256.47,126.64C267.2,118.18,278.38,110.49,289.43,103.21Z" transform="translate(-61.82 -65.18)"/><rect class="cls-6" x="150.87" y="254.74" width="19.73" height="42.78" rx="1.57" ry="1.57" transform="translate(259.64 487.08) rotate(-180)"/><rect class="cls-7" x="127.59" y="235.19" width="19.73" height="62.33" rx="1.57" ry="1.57" transform="translate(213.09 467.54) rotate(-180)"/><rect class="cls-8" x="104.7" y="211.88" width="19.73" height="85.64" rx="1.57" ry="1.57" transform="translate(167.31 444.23) rotate(-180)"/><rect class="cls-9" x="81.42" y="223.67" width="19.73" height="73.85" rx="1.57" ry="1.57" transform="translate(120.75 456.02) rotate(-180)"/><path class="cls-1" d="M251.69,98.54c0.86-.29,2.34-1,2.63-1.14,0.58-.19-0.58-0.77-1.14-1.67a1.52,1.52,0,0,1-.37-1.29c1.32-1.6,14.15-7.88,36.92-17.55A175.53,175.53,0,0,1,311,68.79a44.74,44.74,0,0,1,5.57-1.54c35-6.16,50.3,2.31,55.94,13.81A28.34,28.34,0,0,1,375,93.75c-0.65,13.35-5.64,35-8.39,34.07l-47.13-15c-29-9.31-62-9.86-67.64-12.58C251.21,100,250.84,98.69,251.69,98.54Z" transform="translate(-61.82 -65.18)"/><rect class="cls-6" x="188.76" y="332.25" width="22.39" height="23.42" rx="1.57" ry="1.57" transform="translate(338.08 622.74) rotate(-180)"/><rect class="cls-7" x="182.49" y="355.04" width="22.39" height="23.42" rx="1.57" ry="1.57" transform="translate(325.55 668.32) rotate(-180)"/><rect class="cls-8" x="191.46" y="379.68" width="22.39" height="23.42" rx="1.57" ry="1.57" transform="translate(343.49 717.6) rotate(-180)"/><rect class="cls-9" x="214.25" y="394.63" width="22.39" height="23.42" rx="1.57" ry="1.57" transform="translate(389.07 747.51) rotate(-180)"/><path class="cls-10" d="M178.88,386.12c16.22,32.29,40.5,53.8,72.79,37.58,18.84-9.46,29.57-35.07,12-70a20.58,20.58,0,0,0-28.3-9.38c-8.07,4.05-13.47,0-18.87-10.74s-16.18-12.09-26.94-6.69-24.18,32.36-10.67,59.27h0Zm10.73-22.24A7.53,7.53,0,1,1,186.27,374,7.53,7.53,0,0,1,189.62,363.88Zm10.81,21.53a7.53,7.53,0,1,1-3.35,10.11A7.53,7.53,0,0,1,200.43,385.41ZM222,401.53a7.53,7.53,0,1,1-3.35,10.11A7.53,7.53,0,0,1,222,401.53Zm-25.7-64.59A7.53,7.53,0,1,1,193,347,7.53,7.53,0,0,1,196.3,336.93Zm40.45,30.23a9,9,0,1,1,12.13,4,9,9,0,0,1-12.13-4h0Z" transform="translate(-61.82 -65.18)"/><circle class="cls-11" cx="183.09" cy="297.5" r="9.82"/></svg>