<svg id="Ebene_1" data-name="Ebene 1" xmlns="http://www.w3.org/2000/svg" viewBox="0 0 469.64 431.13"><defs><style>.cls-1{fill:#a05a2c;}.cls-2{fill:#502d16;}.cls-15,.cls-3,.cls-4,.cls-5,.cls-6,.cls-7,.cls-8{fill:none;}.cls-3,.cls-4,.cls-5,.cls-6{stroke:#a05a2c;}.cls-14,.cls-15,.cls-3,.cls-4,.cls-5,.cls-6,.cls-7,.cls-8{stroke-miterlimit:10;}.cls-3,.cls-4,.cls-5,.cls-6,.cls-7,.cls-8{stroke-width:1.8px;}.cls-4{stroke-dasharray:1.88 1.88;}.cls-5{stroke-dasharray:1.77 1.77;}.cls-6{stroke-dasharray:1.8;}.cls-7,.cls-8{stroke:#502d16;}.cls-8{stroke-dasharray:1.83 1.83;}.cls-9{fill:#212121;}.cls-10{fill:#0b0d10;}.cls-11,.cls-13,.cls-14{fill:#fff;}.cls-11{isolation:isolate;}.cls-12{fill:#3f3f3f;}.cls-14,.cls-15{stroke:#3f3f3f;stroke-width:2.8px;}.cls-15{stroke-linecap:round;}</style></defs><title>img-3</title><g id="layer3"><path id="path4010" class="cls-1" d="M181.06,416.46c1.51-16.54,31.67-32.41,44.69-8.72s10,35,10,35l-50.91,10.46S179.56,433,181.06,416.46Z" transform="translate(-15.1 -34.71)"/><ellipse id="path4012" class="cls-1" cx="201.11" cy="396.37" rx="2.99" ry="2.3" transform="translate(-90.79 13.9) rotate(-11.61)"/><path id="path4016" class="cls-2" d="M180,452.37c0.93-4.7,52.87-16.7,57.74-13.75s5,7.17,1,11.54S191.12,463,186.62,461.8,179.06,457.06,180,452.37Z" transform="translate(-15.1 -34.71)"/><path id="path4018" class="cls-2" d="M209.48,451.94a26,26,0,0,0,13,9.76c3.79,1.27,2.57,5.86-1.88,3.44s-8.45-3.12-11.16-13.2h0Z" transform="translate(-15.1 -34.71)"/></g><g id="layer3-2" data-name="layer3"><g id="path4010-2" data-name="path4010"><path class="cls-3" d="M377.29,238.09a5.43,5.43,0,0,1-.12.89l-0.88.18" transform="translate(-15.1 -34.71)"/><line class="cls-4" x1="359.34" y1="204.83" x2="338.2" y2="209.18"/><path class="cls-3" d="M352.38,244.07l-0.88.18s-0.08-.31-0.21-0.87" transform="translate(-15.1 -34.71)"/><path class="cls-5" d="M350.9,241.65c-0.74-3.57-1.85-10.2-1.33-15.95,0.76-8.34,16-16.34,22.54-4.4,4.46,8.12,5.19,13.37,5.2,15.89" transform="translate(-15.1 -34.71)"/></g><ellipse id="path4012-2" data-name="path4012" class="cls-6" cx="359.69" cy="215.58" rx="1.51" ry="1.16" transform="translate(-51.14 42.13) rotate(-11.61)"/><g id="path4016-2" data-name="path4016"><path class="cls-2" d="M352.92,249.53a3.25,3.25,0,0,1-.77-0.09,6.65,6.65,0,0,1-1.31-.5l0.82-1.61a4.83,4.83,0,0,0,1,.36,1.78,1.78,0,0,0,.34,0Zm1.88-.11-0.18-1.79c0.52-.05,1.1-0.12,1.73-0.21l0.24,1.79C355.94,249.3,355.34,249.37,354.8,249.42Zm3.57-.48-0.28-1.78,1.74-.29,0.31,1.78Zm3.52-.61-0.33-1.77,1.73-.33,0.35,1.77Zm-12.72-.69a4.54,4.54,0,0,1-1-1.94l1.75-.41a2.76,2.76,0,0,0,.61,1.18Zm16.22,0L365,245.89l1.73-.37,0.39,1.76Zm3.49-.77-0.41-1.76,1.71-.41,0.43,1.75Zm3.47-.86-0.46-1.74,1.69-.47,0.5,1.73Zm3.46-1-0.57-1.71c0.62-.21,1.16-0.4,1.6-0.59l0.7,1.66C377.07,244.57,376.49,244.79,375.82,245Zm-26-.87a0.39,0.39,0,0,0,.06-0.15l-1.77-.35c0.12-.61.67-1.12,1.83-1.7l0.81,1.61A3,3,0,0,0,349.87,244.14Zm29.52-.91L378,242a5.48,5.48,0,0,0,.87-1.24l1.62,0.79A7.24,7.24,0,0,1,379.38,243.23Zm-27-.35-0.65-1.68c0.52-.2,1.09-0.41,1.71-0.61l0.57,1.71C353.38,242.49,352.83,242.69,352.34,242.88Zm3.3-1.12L355.11,240l1.72-.51,0.5,1.73Zm3.38-1L358.56,239l1.73-.45,0.44,1.75Zm3.42-.87L362,238.17l1.74-.41,0.4,1.76Zm16.74-.38a1.9,1.9,0,0,0-.49-1.08l1.37-1.17a3.69,3.69,0,0,1,.92,2.1Zm-13.29-.4-0.38-1.76,1.75-.36,0.35,1.77Zm3.46-.69L369,236.68l1.77-.31,0.29,1.78Zm3.47-.57-0.25-1.78c0.64-.09,1.24-0.16,1.8-0.22l0.18,1.79C374,237.73,373.42,237.8,372.81,237.88Zm4.87-.24a3.6,3.6,0,0,0-1.07-.1h-0.36l-0.05-1.8a6,6,0,0,1,2.08.19Z" transform="translate(-15.1 -34.71)"/></g><g id="path4018-2" data-name="path4018"><path class="cls-7" d="M364.17,244.46q-0.13-.41-0.25-0.87h0q0.28,0.37.56,0.71" transform="translate(-15.1 -34.71)"/><path class="cls-8" d="M365.71,245.64a12.51,12.51,0,0,0,4.78,2.88c1.91,0.64,1.3,3-.95,1.73-2-1.06-3.74-1.47-5.07-4.93" transform="translate(-15.1 -34.71)"/></g></g><g id="layer2"><path id="path2997" class="cls-9" d="M103,120.66c-5.4,28.34-5.18,48.51-7.39,70C79.68,308.83,22.85,428.88,15.1,455.44c0,0,30.93,3.35,72.69,3.35,97.3,0,104.36-21.48,120.07-40.75C100.2,467.68,126.2,296,146.43,249.86c13.82-32.4,74.7-20.1,62.91,17.54-4.13,11.63-7,25-2.94,29.25,4.75,3.93,27.84,0,27.84,0,16.91-3.8,22-5.68,30.72-8.77-24.92-52.21-74.2-81.34-115.69-108.43-13.76-15.57-14.47-49.87-15.11-48.52-6.91,14.68-5.92,14.13-14.68,29.5C107.75,135.15,103.64,119.2,103,120.66Z" transform="translate(-15.1 -34.71)"/><circle id="path3767" class="cls-10" cx="163.16" cy="237.38" r="20.48"/><path id="path3875" class="cls-11" d="M170.93,269.66c-13.3,3.67-3.41-8.9-.26-9.05C179,259.88,173.12,269.07,170.93,269.66Z" transform="translate(-15.1 -34.71)"/><path id="path3889" d="M247.47,336.26l0.86-23.94c10.33,1.49,13.66.47,19.5-7.31C270.47,319.54,258,328.53,247.47,336.26Z" transform="translate(-15.1 -34.71)"/></g><path class="cls-10" d="M394.21,130.84a13,13,0,1,0-13,13A13,13,0,0,0,394.21,130.84ZM386,123.56c2,0.1,8.28,8.07-.16,5.74C384.48,128.93,380.73,123.1,386,123.56Z" transform="translate(-15.1 -34.71)"/><path class="cls-11" d="M385.87,129.3c8.44,2.33,2.16-5.65.16-5.74C380.73,123.1,384.48,128.93,385.87,129.3Z" transform="translate(-15.1 -34.71)"/><path d="M324.39,151.73c-1.67,9.22,6.26,14.93,12.92,19.83l-0.55-15.19C330.2,157.31,328.09,156.66,324.39,151.73Z" transform="translate(-15.1 -34.71)"/><path class="cls-12" d="M484.74,247.18c-4.92-16.86-41-93-51.08-168-1.4-13.6-1.26-26.41-4.69-44.39-0.41-.92-3,9.19-10.45,25.23-5.56-9.76-4.93-9.41-9.31-18.72-0.4-.86-0.86,20.91-9.58,30.79-26.32,17.19-57.59,35.67-73.4,68.8a133.94,133.94,0,0,0,19.49,5.56s14.65,2.49,17.66,0c2.58-2.71.75-11.18-1.87-18.56C354,104,392.65,96.18,401.42,116.74c12.83,29.26,29.33,138.2-39,106.71,3.93,4.82,7,9.85,13.06,14.18l2.45-.57,0.54,2.31-0.24.06c9.75,5.75,26.38,9.88,60.36,9.88C465.11,249.3,484.74,247.18,484.74,247.18Z" transform="translate(-15.1 -34.71)"/><path class="cls-13" d="M350.49,243.49L351,245.8l27.22-6.38c-1-.58-1.9-1.18-2.75-1.79Z" transform="translate(-15.1 -34.71)"/><path class="cls-12" d="M378,237.06l-2.45.57c0.85,0.61,1.77,1.21,2.75,1.79l0.24-.06Z" transform="translate(-15.1 -34.71)"/><path class="cls-12" d="M241.93,421.38a2,2,0,0,0-2.44-1.45h0a2,2,0,0,0-1.52,2.4l0.94,4.24a2,2,0,0,0,2.42,1.53l0.26-.06a2,2,0,0,0,1.46-2.46Z" transform="translate(-15.1 -34.71)"/><path class="cls-12" d="M256.92,416.44a2,2,0,0,0-2.58-1.14q-1.8.69-3.6,1.32a2,2,0,0,0-1.24,2.53l1.36,4.13a2,2,0,0,0,2.56,1.28c1.33-.46,2.66-0.95,4-1.46a2,2,0,0,0,1.13-2.63Z" transform="translate(-15.1 -34.71)"/><path class="cls-12" d="M355.32,289.83l4.24,0.95a2,2,0,0,0,2.41-1.54c0.29-1.34.57-2.69,0.83-4a2,2,0,0,0-1.61-2.36l-4.27-.8a2,2,0,0,0-2.35,1.6c-0.25,1.27-.51,2.54-0.78,3.81A2,2,0,0,0,355.32,289.83Z" transform="translate(-15.1 -34.71)"/><path class="cls-12" d="M284.64,401.31a2,2,0,0,0-2.77-.52q-1.6,1.09-3.22,2.13a2,2,0,0,0-.61,2.76l2.3,3.69a2,2,0,0,0,2.79.64q1.76-1.13,3.51-2.32a2,2,0,0,0,.5-2.82Z" transform="translate(-15.1 -34.71)"/><path class="cls-12" d="M271.2,409.67a2,2,0,0,0-2.7-.82q-1.71.9-3.43,1.75a2,2,0,0,0-.92,2.67L266,417.2a2,2,0,0,0,2.7,1q1.88-.93,3.76-1.92a2,2,0,0,0,.81-2.74Z" transform="translate(-15.1 -34.71)"/><path class="cls-12" d="M358.27,274.15l4.3,0.66a2,2,0,0,0,2.3-1.7l0-.21a2,2,0,0,0-1.73-2.28l-4.31-.58a2,2,0,0,0-2.27,1.72v0.1A2,2,0,0,0,358.27,274.15Z" transform="translate(-15.1 -34.71)"/><path class="cls-13" d="M357.65,298.67l-4.2-1.1A2,2,0,0,0,351,299c-0.34,1.25-.69,2.5-1.05,3.73a2,2,0,0,0,1.35,2.5l4.16,1.25a2,2,0,0,0,2.52-1.36c0.38-1.32.76-2.65,1.12-4A2,2,0,0,0,357.65,298.67Z" transform="translate(-15.1 -34.71)"/><path class="cls-13" d="M347.09,329.35l-4-1.73a2,2,0,0,0-2.64,1q-0.79,1.77-1.61,3.51a2,2,0,0,0,.94,2.68l3.91,1.89a2,2,0,0,0,2.7-1q0.88-1.87,1.73-3.77A2,2,0,0,0,347.09,329.35Z" transform="translate(-15.1 -34.71)"/><path class="cls-13" d="M353,314.21l-4.11-1.41a2,2,0,0,0-2.55,1.24q-0.65,1.82-1.33,3.64a2,2,0,0,0,1.16,2.59l4.05,1.57a2,2,0,0,0,2.62-1.16c0.48-1.29,1-2.59,1.42-3.89A2,2,0,0,0,353,314.21Z" transform="translate(-15.1 -34.71)"/><path class="cls-13" d="M308.56,380.57a2,2,0,0,0-2.84.07q-1.34,1.38-2.71,2.72a2,2,0,0,0,0,2.84l3,3.14a2,2,0,0,0,2.86.05q1.49-1.46,2.95-3a2,2,0,0,0-.07-2.86Z" transform="translate(-15.1 -34.71)"/><path class="cls-13" d="M331.78,358l-3.65-2.36a2,2,0,0,0-2.78.58q-1.07,1.6-2.17,3.19a2,2,0,0,0,.48,2.8l3.54,2.52a2,2,0,0,0,2.82-.48q1.19-1.7,2.34-3.44A2,2,0,0,0,331.78,358Z" transform="translate(-15.1 -34.71)"/><path class="cls-13" d="M322.34,371.23l-3.42-2.68a2,2,0,0,0-2.82.33q-1.2,1.5-2.44,3a2,2,0,0,0,.22,2.83l3.3,2.84a2,2,0,0,0,2.85-.22q1.34-1.59,2.65-3.23A2,2,0,0,0,322.34,371.23Z" transform="translate(-15.1 -34.71)"/><path class="cls-13" d="M340,344l-3.83-2a2,2,0,0,0-2.72.82q-0.93,1.69-1.89,3.37a2,2,0,0,0,.72,2.75l3.74,2.21a2,2,0,0,0,2.77-.72q1-1.8,2-3.62A2,2,0,0,0,340,344Z" transform="translate(-15.1 -34.71)"/><path class="cls-13" d="M297.12,391.55a2,2,0,0,0-2.82-.23q-1.48,1.25-3,2.46a2,2,0,0,0-.31,2.81l2.68,3.42a2,2,0,0,0,2.84.34q1.63-1.31,3.23-2.67a2,2,0,0,0,.21-2.85Z" transform="translate(-15.1 -34.71)"/><rect class="cls-14" x="279.21" y="268.29" width="69.49" height="95.22" rx="2.38" ry="2.38"/><line class="cls-15" x1="291.45" y1="283.44" x2="336.46" y2="283.44"/><line class="cls-15" x1="291.45" y1="298.25" x2="336.46" y2="298.25"/><line class="cls-15" x1="291.45" y1="313.06" x2="336.46" y2="313.06"/><line class="cls-15" x1="291.45" y1="327.86" x2="336.46" y2="327.86"/><line class="cls-15" x1="291.45" y1="342.67" x2="311.54" y2="342.67"/><g id="layer3-3" data-name="layer3"><path id="path4010-3" data-name="path4010" class="cls-12" d="M353.32,385.29c-0.3,4.06-7.62,8.07-10.9,2.32s-2.6-8.53-2.6-8.53l12.42-2.77A31.25,31.25,0,0,1,353.32,385.29Z" transform="translate(-15.1 -34.71)"/><ellipse id="path4012-3" data-name="path4012" class="cls-12" cx="348.49" cy="390.29" rx="0.73" ry="0.56" transform="translate(-91.8 50.65) rotate(-12.59)"/><path id="path4016-3" data-name="path4016" class="cls-9" d="M353.43,376.49c-0.21,1.15-12.87,4.31-14.08,3.61s-1.25-1.73-.28-2.82,11.59-3.34,12.7-3.07A2,2,0,0,1,353.43,376.49Z" transform="translate(-15.1 -34.71)"/><path id="path4018-3" data-name="path4018" class="cls-9" d="M346.21,376.72a6.38,6.38,0,0,0-3.23-2.34c-0.93-.29-0.65-1.42.44-0.85a4,4,0,0,1,2.79,3.18h0Z" transform="translate(-15.1 -34.71)"/></g></svg>