<svg id="Ebene_1" data-name="Ebene 1" xmlns="http://www.w3.org/2000/svg" viewBox="0 0 490.01 252.79"><defs><style>.cls-1,.cls-5,.cls-6,.cls-7,.cls-8,.cls-9{fill:#fff;}.cls-2{fill:#a05a2c;}.cls-10,.cls-3{fill:none;stroke-linecap:round;}.cls-3{stroke:#a05a2c;stroke-width:3.73px;}.cls-10,.cls-11,.cls-3,.cls-9{stroke-miterlimit:10;}.cls-4{fill:#502d16;}.cls-5{font-size:33.41px;}.cls-5,.cls-6,.cls-7,.cls-8{font-family:Myriad Pro;}.cls-6{font-size:33.41px;}.cls-7{font-size:33.41px;}.cls-8{font-size:33.41px;}.cls-10,.cls-11,.cls-9{stroke:#3f3f3f;}.cls-10,.cls-9{stroke-width:3.93px;}.cls-11,.cls-12{fill:#3f3f3f;}.cls-11{stroke-width:1.96px;}</style></defs><title>img-4</title><path class="cls-1" d="M242.21,235.71a5.73,5.73,0,0,1-3,8.11L228.3,248a5.7,5.7,0,0,0-2.67,2.1l-1-.69L147.26,278.6a7.16,7.16,0,0,1-8.38-2.53l-21.1-29.4,108.08-39.75a5.49,5.49,0,0,1,1.41,1.68Z" transform="translate(-5.04 -125.81)"/><path class="cls-2" d="M120.66,376a5.78,5.78,0,0,1-2.05.33l-0.82-129.66,21.1,29.4a7.16,7.16,0,0,0,8.38,2.53l77.36-29.19,1,0.69a5.72,5.72,0,0,0-1,3.25v81.38a5.73,5.73,0,0,1-3.79,5.39Z" transform="translate(-5.04 -125.81)"/><path class="cls-1" d="M117.78,246.68l0.82,129.66a5.59,5.59,0,0,1-2-.42L25.75,339.4a5.7,5.7,0,0,1-3.59-5.33l0.33-81.21a5.77,5.77,0,0,0-.58-2.55l0.64-1.42,72.78,32.87a5.85,5.85,0,0,0,7.22-2.68Z" transform="translate(-5.04 -125.81)"/><path class="cls-1" d="M22.55,248.88l-0.64,1.42a5.72,5.72,0,0,0-3.14-2.83l-8.14-3a5.73,5.73,0,0,1-2.92-8.28l16.71-28.22a5.28,5.28,0,0,1,1.35-1.55l92,40.29-15.24,32.39a5.85,5.85,0,0,1-7.22,2.68Z" transform="translate(-5.04 -125.81)"/><path class="cls-3" d="M118.6,376.34a5.78,5.78,0,0,0,2.05-.33l100.17-35.89a5.73,5.73,0,0,0,3.79-5.39V253.35A5.73,5.73,0,0,1,228.3,248l10.93-4.18a5.73,5.73,0,0,0,3-8.11l-14.95-27.11a5.49,5.49,0,0,0-1.41-1.68,5.59,5.59,0,0,0-1.55-.89l-97.7-37.53a5.73,5.73,0,0,0-4.13,0L50.81,196.37l-23.54,9.15a5.39,5.39,0,0,0-1.5.87,5.28,5.28,0,0,0-1.35,1.55L7.71,236.15a5.73,5.73,0,0,0,2.92,8.28l8.14,3a5.69,5.69,0,0,1,3.72,5.38l-0.33,81.21a5.7,5.7,0,0,0,3.59,5.33l90.84,36.52A5.59,5.59,0,0,0,118.6,376.34Z" transform="translate(-5.04 -125.81)"/><polyline class="cls-3" points="113.56 250.93 113.56 250.53 112.74 120.87 20.73 80.58 20.38 80.43"/><path class="cls-3" d="M226.26,206.78l-0.41.14L117.78,246.68l21.1,29.4a7.16,7.16,0,0,0,8.38,2.53l77.36-29.19" transform="translate(-5.04 -125.81)"/><path class="cls-3" d="M22.52,248.87h0l72.78,32.87a5.85,5.85,0,0,0,7.22-2.68l15.24-32.39" transform="translate(-5.04 -125.81)"/><rect class="cls-4" x="144.94" y="177.21" width="114.48" height="40.92" rx="4.32" ry="4.32" transform="translate(-68.94 -23.82) rotate(-24.58)"/><text class="cls-5" transform="translate(177.92 92.01) rotate(-24.58)">JPG</text><rect class="cls-4" x="12.91" y="169.17" width="114.48" height="40.92" rx="4.32" ry="4.32" transform="translate(-96.35 185.54) rotate(-106.71)"/><text class="cls-6" transform="translate(84.17 91.43) rotate(-106.71)">LINK</text><rect class="cls-4" x="93.29" y="169.17" width="114.48" height="40.92" rx="4.32" ry="4.32" transform="translate(-95.73 42.99) rotate(-46.62)"/><text class="cls-7" transform="matrix(0.69, -0.73, 0.73, 0.69, 131.92, 93.21)">PNG</text><rect class="cls-4" x="50.67" y="169.17" width="114.48" height="40.92" rx="4.32" ry="4.32" transform="matrix(0.29, -0.96, 0.96, 0.29, -109.81, 112.53)"/><text class="cls-8" transform="translate(104.65 93.75) rotate(-73.26)">PDF</text><path class="cls-1" d="M242.21,235.71a5.73,5.73,0,0,1-3,8.11L228.3,248a5.7,5.7,0,0,0-2.67,2.1l-1-.69L147.26,278.6a7.16,7.16,0,0,1-8.38-2.53l-21.1-29.4,108.48-39.9,1,1.83Z" transform="translate(-5.04 -125.81)"/><path class="cls-2" d="M120.66,376a5.78,5.78,0,0,1-2.05.33l-0.82-129.66,21.1,29.4a7.16,7.16,0,0,0,8.38,2.53l77.36-29.19,1,0.69a5.72,5.72,0,0,0-1,3.25v81.38a5.73,5.73,0,0,1-3.79,5.39Z" transform="translate(-5.04 -125.81)"/><path class="cls-1" d="M117.78,246.68l0.82,129.66a5.59,5.59,0,0,1-2-.42L25.75,339.4a5.7,5.7,0,0,1-3.59-5.33l0.33-81.21a5.77,5.77,0,0,0-.58-2.55l0.64-1.42,72.78,32.87a5.85,5.85,0,0,0,7.22-2.68Z" transform="translate(-5.04 -125.81)"/><path class="cls-1" d="M22.55,248.88l-0.64,1.42a5.72,5.72,0,0,0-3.14-2.83l-8.14-3a5.73,5.73,0,0,1-2.92-8.28l16.71-28.22,1-1.71,92.35,40.44-15.24,32.39a5.85,5.85,0,0,1-7.22,2.68Z" transform="translate(-5.04 -125.81)"/><path class="cls-3" d="M24.42,207.94L7.71,236.15a5.73,5.73,0,0,0,2.92,8.28l8.14,3a5.69,5.69,0,0,1,3.72,5.38l-0.33,81.21a5.7,5.7,0,0,0,3.59,5.33l90.84,36.52a5.59,5.59,0,0,0,2,.42,5.78,5.78,0,0,0,2.05-.33l100.17-35.89a5.73,5.73,0,0,0,3.79-5.39V253.35A5.73,5.73,0,0,1,228.3,248l10.93-4.18a5.73,5.73,0,0,0,3-8.11l-14.95-27.11" transform="translate(-5.04 -125.81)"/><polyline class="cls-3" points="113.56 250.93 113.56 250.53 112.74 120.87 20.38 80.43"/><path class="cls-3" d="M226.26,206.78l-108.48,39.9,21.1,29.4a7.16,7.16,0,0,0,8.38,2.53l77.36-29.19" transform="translate(-5.04 -125.81)"/><path class="cls-3" d="M22.52,248.87h0l72.78,32.87a5.85,5.85,0,0,0,7.22-2.68l15.24-32.39" transform="translate(-5.04 -125.81)"/><rect class="cls-9" x="308.9" y="1.96" width="179.14" height="245.45" rx="2.38" ry="2.38"/><line class="cls-10" x1="340.46" y1="79.18" x2="456.49" y2="79.18"/><line class="cls-10" x1="408.4" y1="117.44" x2="456.49" y2="117.36"/><line class="cls-10" x1="340.46" y1="155.52" x2="456.49" y2="155.52"/><line class="cls-10" x1="340.46" y1="193.69" x2="392.25" y2="193.69"/><path class="cls-11" d="M459.27,311l-7.9,15.32h0l-7-8.11a1.59,1.59,0,0,0,.26-0.84,1.58,1.58,0,1,0-3.16,0,1.64,1.64,0,0,0,.84,1.42h0l-4.9,15.48h-0.05l-6.16-6.48a1.47,1.47,0,0,0,.32-0.95,1.58,1.58,0,1,0-3.16,0,1.65,1.65,0,0,0,.63,1.26h0l-5.79,13.11h-0.11a1.58,1.58,0,1,0,1.58,1.58,1.78,1.78,0,0,0-.47-1.16l5.85-13.22a0.67,0.67,0,0,0,.32-0.05l6.16,6.53h0a1.78,1.78,0,0,0-.26.9,1.58,1.58,0,0,0,3.16,0,1.59,1.59,0,0,0-.9-1.42l4.85-15.48c0.05,0,.11-0.05.16-0.05l6.79,8h0a1.6,1.6,0,0,0-.42,1.11,1.58,1.58,0,1,0,3.16,0,1.65,1.65,0,0,0-.68-1.32l7.69-15a1.57,1.57,0,1,0-1.05-1.47A1.2,1.2,0,0,0,459.27,311Zm7.58,41.29h-49v-49h-1.05l1.58-2.63,1.58,2.63h-1.05v47.92h47.92V350.2l2.63,1.58-2.63,1.58V352.3h0Z" transform="translate(-5.04 -125.81)"/><path class="cls-12" d="M353.24,243.61H345A21.73,21.73,0,0,0,386.36,252h0l-7.16-3A13.69,13.69,0,0,1,353.24,243.61Zm24.61-8.85,6.25-4.95a21.5,21.5,0,0,1,4.25,12.93,21.77,21.77,0,0,1-1.35,7.55h0l-7.16-3a14.14,14.14,0,0,0,.69-4.3A13.24,13.24,0,0,0,377.85,234.75Zm-24.57,7.12H345a21.73,21.73,0,0,1,38-13.46h0l-6.29,5A13.66,13.66,0,0,0,353.28,241.87Z" transform="translate(-5.04 -125.81)"/><line class="cls-10" x1="340.46" y1="40.91" x2="456.49" y2="40.91"/><line class="cls-10" x1="417.99" y1="79.19" x2="456.49" y2="79.09"/></svg>