<svg id="Ebene_1" data-name="Ebene 1" xmlns="http://www.w3.org/2000/svg" viewBox="0 0 470.18 311.96"><defs><style>.cls-1{fill:#232;}.cls-2{fill:#212121;}.cls-3{fill:#502d16;}.cls-4{fill:#0b0d10;}.cls-5{fill:#fff;isolation:isolate;}.cls-6{fill:none;stroke:#fff;stroke-linecap:round;stroke-miterlimit:10;stroke-width:4.1px;}.cls-7{fill:#d42919;}</style></defs><title>img-1</title><rect class="cls-1" x="286.65" y="33.71" width="179.43" height="131.71" rx="1.41" ry="1.41"/><path class="cls-2" d="M477.17,128.24V251.76H305.93V128.24H477.17m2.69-8.19H303.24a5.5,5.5,0,0,0-5.5,5.5v128.9a5.5,5.5,0,0,0,5.5,5.5H479.86a5.5,5.5,0,0,0,5.5-5.5V125.55a5.5,5.5,0,0,0-5.5-5.5h0Z" transform="translate(-15.18 -90.43)"/><path class="cls-3" d="M319,228.44l-5.37,6.87-6.18,7.87-8,10.18-9.56,12-10.72,13.37c-3.72,4.63-7.55,9.43-11.51,14.25l-12,14.65c-4,4.91-7.94,9.89-11.79,14.8s-7.68,9.71-11.54,14.22-7.78,8.71-11.58,12.62-7.42,7.57-10.86,10.88-6.63,6.29-9.52,8.9-5.48,4.81-7.62,6.62-3.88,3.18-5.07,4.11-1.85,1.41-1.85,1.41l-0.93-.81s0.38-.72,1.14-2,1.89-3.21,3.38-5.59,3.32-5.25,5.51-8.45,4.69-6.81,7.51-10.65,5.92-8,9.3-12.24,7-8.73,10.92-13.19,8.16-8.9,12.52-13.38,8.73-9.06,13.05-13.7l12.89-13.84c4.24-4.58,8.47-9,12.55-13.35l11.78-12.44,10.59-11.11,9-9.36,7-7.2,6.08-6.25Z" transform="translate(-15.18 -90.43)"/><circle id="path3767" class="cls-4" cx="159.5" cy="129.44" r="20.02"/><path id="path3875" class="cls-5" d="M167.51,217.5c-13,3.58-3.33-8.7-.25-8.85C175.43,207.95,169.65,216.93,167.51,217.5Z" transform="translate(-15.18 -90.43)"/><path id="path3889" d="M242.33,282.61l0.84-23.4c10.1,1.46,13.36.46,19.06-7.15C264.81,266.27,252.59,275.05,242.33,282.61Z" transform="translate(-15.18 -90.43)"/><line class="cls-6" x1="307.87" y1="57.45" x2="440.11" y2="57.45"/><line class="cls-6" x1="307.87" y1="69.73" x2="358.32" y2="69.73"/><line class="cls-6" x1="307.87" y1="82.02" x2="410.12" y2="82.02"/><line class="cls-6" x1="307.87" y1="94.3" x2="381.99" y2="94.3"/><line class="cls-6" x1="307.87" y1="106.59" x2="428.92" y2="106.59"/><path class="cls-7" d="M126.4,147.47A11.66,11.66,0,0,0,130,147l29.31-9.24L149,131.06l-21.86,6.87a3.74,3.74,0,0,1-1.48,0l-30.74-9.71c-0.24,3.23-.5,6.44-0.81,9.68L122.85,147A11.66,11.66,0,0,0,126.4,147.47Z" transform="translate(-15.18 -90.43)"/><path class="cls-7" d="M173.17,146.84l0.58,10.1q0.3,5.1-6.07,9.47t-17.39,6.92a105.84,105.84,0,0,1-23.9,2.55,105.84,105.84,0,0,1-23.9-2.55,60.69,60.69,0,0,1-13.24-4.52C69.46,274.53,22.13,375.29,15.18,399.12c0,0,30.24,3.28,71.06,3.28,95.12,0,102-21,117.38-39.83-105.24,48.52-79.83-119.33-60.06-164.41,13.51-31.68,73-19.65,61.5,17.14-4,11.36-6.85,24.42-2.88,28.59,4.64,3.84,27.21,0,27.21,0,16.53-3.72,21.51-5.56,30-8.57C240.28,195.22,206.46,169.06,173.17,146.84Z" transform="translate(-15.18 -90.43)"/><path class="cls-2" d="M96.3,138.77l-15.23.17,5.15,35.38q0.72,5.06,7.83,8.08a34.22,34.22,0,0,0,4.53,1.52c-0.14-9.67-.51-19.33-1.14-28.92C97.37,154.22,96.38,139.55,96.3,138.77Z" transform="translate(-15.18 -90.43)"/><path class="cls-2" d="M169.95,120.93l-14.75,9.23c5.1,2,16.08,13.45,21.27,15.57Z" transform="translate(-15.18 -90.43)"/><path class="cls-2" d="M147.18,134.9l56-30.9a2.43,2.43,0,0,0-.91-4.5l-81.53-8.56c1.75,5,9.15,31.93,23.49,42.78Z" transform="translate(-15.18 -90.43)"/><path class="cls-2" d="M38.37,132.7a2.43,2.43,0,0,0,.91,4.5L65,139.85q-4.5,10.2-2.26,25.37a9.43,9.43,0,0,0,2.69,15.91l2.16,32.25a2.41,2.41,0,0,0,2.85,2.14l13.92-2.82a2.41,2.41,0,0,0,1.79-3.08L75.54,179.07a8.94,8.94,0,0,0,2.63-8.61,8.7,8.7,0,0,0-6.17-7A47.07,47.07,0,0,1,71.85,150q0.89-6,3.51-9.13l18.25,1.94c-1.52-11.95-3.35-24-4.37-38.23Z" transform="translate(-15.18 -90.43)"/><path class="cls-2" d="M120.13,90.88l-4.27-.45a3.74,3.74,0,0,0-1.45.29l-16.95,9.36c3.63,5.7,8.42,12.91,14.51,21.2C117.3,105.11,116.57,105.54,120.13,90.88Z" transform="translate(-15.18 -90.43)"/><path class="cls-2" d="M136.39,183.48a105.84,105.84,0,0,0,22.91-7.25Q169.6,171.54,175,166T179,155.52l-2.57-9.78c-5.19-2.12-18-16.87-23.13-18.88L94.4,138.8c0.08,0.78,3,15.42,3,16.2,0.63,9.59,1,19.25,1.14,28.92a60.69,60.69,0,0,0,13.88,1.8A105.84,105.84,0,0,0,136.39,183.48Z" transform="translate(-15.18 -90.43)"/><path class="cls-2" d="M126.4,146.19a3.11,3.11,0,0,0,.71-0.22l20.06-11.08-3-1.18C129.85,122.87,122.46,96,120.71,90.94l-0.57-.06c-3.57,14.66-2.84,14.23-8.16,30.4-6.09-8.28-10.89-15.5-14.51-21.2l-8.22,4.54c1,14.21,2.85,26.28,4.37,38.23l32.05,3.42A3.11,3.11,0,0,0,126.4,146.19Z" transform="translate(-15.18 -90.43)"/></svg>