<svg id="Ebene_1" data-name="Ebene 1" xmlns="http://www.w3.org/2000/svg" viewBox="0 0 283.52 419.86"><defs><style>.cls-1{fill:#d42919;}.cls-2{fill:#0b0d10;}.cls-3{fill:#fff;isolation:isolate;}.cls-4{fill:#212121;}</style></defs><title>login-logo</title><g id="layer2"><path id="path2997" class="cls-1" d="M63.22,25.31c-1.64,33,1.8,55.85,2.69,80.52C66.51,236.27,25.09,374.5,17.35,414a4,4,0,0,0,4.08,4.74c11.34-.54,41.12-2.34,78-7.49C190.4,398.59,209.55,379.05,221.73,359a4,4,0,0,0-5.15-5.65c-101.43,51-98.71-134.94-83.66-188.31,10.55-38.94,81.56-34.62,74.13,9.94-2.72,13.21-3.89,28,.61,33a3.78,3.78,0,0,0,1.43,1c6.85,2.65,29.07-4.22,30.73-4.74l0.2-.07c15.74-5.92,22.05-8.94,29.37-12.7a4,4,0,0,0,1.43-5.82c-36.62-52.5-95.26-77.15-145.31-100.69a4,4,0,0,1-1-.63C106.82,68.55,100.68,30.4,100.18,32c-4.68,15.06-4.64,16.77-9.11,28.45a4,4,0,0,1-7.1.67C69.71,38.15,63.68,23.7,63.22,25.31Z" transform="translate(-17.27 -25.19)"/><path id="path3767" class="cls-2" d="M167.44,162.27a23.46,23.46,0,1,1-18.3,24.24A23.46,23.46,0,0,1,167.44,162.27Z" transform="translate(-17.27 -25.19)"/><path id="path3875" class="cls-3" d="M163.85,183.57c-14.51,6.26-5.27-9.55-1.73-10.23C171.5,171.2,166.24,182.56,163.85,183.57Z" transform="translate(-17.27 -25.19)"/><path id="path3889" d="M261.21,247l-2.81-27.29c12,0.05,15.57-1.63,21-11.38C284.65,224.41,271.89,236.58,261.21,247Z" transform="translate(-17.27 -25.19)"/></g><path class="cls-4" d="M243.84,357a1.48,1.48,0,0,1-1.9-.87l-2.14-5.73L239,348.32l-0.55-1.47a1.48,1.48,0,0,0-1.9-.87L208.5,356.47a1.48,1.48,0,0,0-.87,1.9l0.55,1.47,0.77,2.06,2.14,5.73a1.48,1.48,0,0,1-.87,1.9l-32.61,12.18a1.48,1.48,0,0,0-.87,1.9l10.7,28.65a1.48,1.48,0,0,0,1.9.87l37.37-14a1.48,1.48,0,0,0,.87-1.9L227.12,396a1.48,1.48,0,0,1,.87-1.9l18.56-6.93a1.48,1.48,0,0,1,1.9.87l0.47,1.25a1.48,1.48,0,0,0,1.9.87l37.37-14a1.48,1.48,0,0,0,.87-1.9l-10.7-28.65a1.48,1.48,0,0,0-1.9-.87Zm-28.34,2.49,17.76-6.63a1.48,1.48,0,0,1,1.9.87l1.62,4.34a1.48,1.48,0,0,1-.87,1.9l-17.76,6.63a1.48,1.48,0,0,1-1.9-.87l-1.62-4.34A1.48,1.48,0,0,1,215.5,359.47Z" transform="translate(-17.27 -25.19)"/><path class="cls-4" d="M250.5,393.54h0a1.34,1.34,0,0,1-.78,1.72l-18.82,7a1.34,1.34,0,0,1-1.72-.78h0a1.34,1.34,0,0,0-1.72-.78L191.2,414.27a2.81,2.81,0,0,0-1.65,3.62L199,443.22a2.81,2.81,0,0,0,3.62,1.65l96.33-36a2.81,2.81,0,0,0,1.65-3.62l-9.46-25.33a2.81,2.81,0,0,0-3.62-1.65l-36.25,13.54A1.34,1.34,0,0,0,250.5,393.54Z" transform="translate(-17.27 -25.19)"/></svg>